<svg id="my-svg" width="1043.6376953125" xmlns="http://www.w3.org/2000/svg" xmlns:xlink="http://www.w3.org/1999/xlink" class="flowchart" height="262" viewBox="0.0000019073486328125 -52 1043.6376953125 262" role="graphics-document document" aria-roledescription="flowchart-v2" style="background-color: white;"><style>#my-svg{font-family:Segoe UI,-apple-system,BlinkMacSystemFont,sans-serif;font-size:14px;fill:#323130;}@keyframes edge-animation-frame{from{stroke-dashoffset:0;}}@keyframes dash{to{stroke-dashoffset:0;}}#my-svg .edge-animation-slow{stroke-dasharray:9,5!important;stroke-dashoffset:900;animation:dash 50s linear infinite;stroke-linecap:round;}#my-svg .edge-animation-fast{stroke-dasharray:9,5!important;stroke-dashoffset:900;animation:dash 20s linear infinite;stroke-linecap:round;}#my-svg .error-icon{fill:#E1DFDD;}#my-svg .error-text{fill:#323130;stroke:#323130;}#my-svg .edge-thickness-normal{stroke-width:1px;}#my-svg .edge-thickness-thick{stroke-width:3.5px;}#my-svg .edge-pattern-solid{stroke-dasharray:0;}#my-svg .edge-thickness-invisible{stroke-width:0;fill:none;}#my-svg .edge-pattern-dashed{stroke-dasharray:3;}#my-svg .edge-pattern-dotted{stroke-dasharray:2;}#my-svg .marker{fill:#605E5C;stroke:#605E5C;}#my-svg .marker.cross{stroke:#605E5C;}#my-svg svg{font-family:Segoe UI,-apple-system,BlinkMacSystemFont,sans-serif;font-size:14px;}#my-svg p{margin:0;}#my-svg .label{font-family:Segoe UI,-apple-system,BlinkMacSystemFont,sans-serif;color:#FFFFFF;}#my-svg .cluster-label text{fill:#323130;}#my-svg .cluster-label span{color:#323130;}#my-svg .cluster-label span p{background-color:transparent;}#my-svg .label text,#my-svg span{fill:#FFFFFF;color:#FFFFFF;}#my-svg .node rect,#my-svg .node circle,#my-svg .node ellipse,#my-svg .node polygon,#my-svg .node path{fill:#0078D4;stroke:#005A9E;stroke-width:1px;}#my-svg .rough-node .label text,#my-svg .node .label text,#my-svg .image-shape .label,#my-svg .icon-shape .label{text-anchor:middle;}#my-svg .node .katex path{fill:#000;stroke:#000;stroke-width:1px;}#my-svg .rough-node .label,#my-svg .node .label,#my-svg .image-shape .label,#my-svg .icon-shape .label{text-align:center;}#my-svg .node.clickable{cursor:pointer;}#my-svg .root .anchor path{fill:#605E5C!important;stroke-width:0;stroke:#605E5C;}#my-svg .arrowheadPath{fill:#000000;}#my-svg .edgePath .path{stroke:#605E5C;stroke-width:1px;}#my-svg .flowchart-link{stroke:#605E5C;fill:none;}#my-svg .edgeLabel{background-color:#FFFFFF;text-align:center;}#my-svg .edgeLabel p{background-color:#FFFFFF;}#my-svg .edgeLabel rect{opacity:0.5;background-color:#FFFFFF;fill:#FFFFFF;}#my-svg .labelBkg{background-color:rgba(255, 255, 255, 0.5);}#my-svg .cluster rect{fill:#F3F2F1;stroke:#D2D0CE;stroke-width:1px;}#my-svg .cluster text{fill:#323130;}#my-svg .cluster span{color:#323130;}#my-svg div.mermaidTooltip{position:absolute;text-align:center;max-width:200px;padding:2px;font-family:Segoe UI,-apple-system,BlinkMacSystemFont,sans-serif;font-size:12px;background:#E1DFDD;border:1px solid hsl(30, 0%, 77.4509803922%);border-radius:2px;pointer-events:none;z-index:100;}#my-svg .flowchartTitleText{text-anchor:middle;font-size:18px;fill:#323130;}#my-svg rect.text{fill:none;stroke-width:0;}#my-svg .icon-shape,#my-svg .image-shape{background-color:#FFFFFF;text-align:center;}#my-svg .icon-shape p,#my-svg .image-shape p{background-color:#FFFFFF;padding:2px;}#my-svg .icon-shape .label rect,#my-svg .image-shape .label rect{opacity:0.5;background-color:#FFFFFF;fill:#FFFFFF;}#my-svg .label-icon{display:inline-block;height:1em;overflow:visible;vertical-align:-0.125em;}#my-svg .node .label-icon path{fill:currentColor;stroke:revert;stroke-width:revert;}#my-svg .node .neo-node{stroke:#005A9E;}#my-svg [data-look="neo"].node rect,#my-svg [data-look="neo"].cluster rect,#my-svg [data-look="neo"].node polygon{stroke:url(#my-svg-gradient);filter:drop-shadow( 1px 2px 2px rgba(185,185,185,1));}#my-svg [data-look="neo"].node path{stroke:url(#my-svg-gradient);stroke-width:1px;}#my-svg [data-look="neo"].node .outer-path{filter:drop-shadow( 1px 2px 2px rgba(185,185,185,1));}#my-svg [data-look="neo"].node .neo-line path{stroke:#005A9E;filter:none;}#my-svg [data-look="neo"].node circle{stroke:url(#my-svg-gradient);filter:drop-shadow( 1px 2px 2px rgba(185,185,185,1));}#my-svg [data-look="neo"].node circle .state-start{fill:#000000;}#my-svg [data-look="neo"].icon-shape .icon{fill:url(#my-svg-gradient);filter:drop-shadow( 1px 2px 2px rgba(185,185,185,1));}#my-svg [data-look="neo"].icon-shape .icon-neo path{stroke:url(#my-svg-gradient);filter:drop-shadow( 1px 2px 2px rgba(185,185,185,1));}#my-svg :root{--mermaid-font-family:"trebuchet ms",verdana,arial,sans-serif;}#my-svg .msBlue&gt;*{fill:#0078D4!important;stroke:#005A9E!important;color:#fff!important;stroke-width:2px!important;}#my-svg .msBlue span{fill:#0078D4!important;stroke:#005A9E!important;color:#fff!important;stroke-width:2px!important;}#my-svg .msBlue tspan{fill:#fff!important;}#my-svg .msGreen&gt;*{fill:#107C10!important;stroke:#0B6A0B!important;color:#fff!important;stroke-width:2px!important;}#my-svg .msGreen span{fill:#107C10!important;stroke:#0B6A0B!important;color:#fff!important;stroke-width:2px!important;}#my-svg .msGreen tspan{fill:#fff!important;}#my-svg .msNeutral&gt;*{fill:#F3F2F1!important;stroke:#D2D0CE!important;color:#323130!important;stroke-width:2px!important;}#my-svg .msNeutral span{fill:#F3F2F1!important;stroke:#D2D0CE!important;color:#323130!important;stroke-width:2px!important;}#my-svg .msNeutral tspan{fill:#323130!important;}#my-svg .msGray&gt;*{fill:#605E5C!important;stroke:#484644!important;color:#fff!important;stroke-width:2px!important;}#my-svg .msGray span{fill:#605E5C!important;stroke:#484644!important;color:#fff!important;stroke-width:2px!important;}#my-svg .msGray tspan{fill:#fff!important;}#my-svg .msPurple&gt;*{fill:#8764B8!important;stroke:#6B4FA0!important;color:#fff!important;stroke-width:2px!important;}#my-svg .msPurple span{fill:#8764B8!important;stroke:#6B4FA0!important;color:#fff!important;stroke-width:2px!important;}#my-svg .msPurple tspan{fill:#fff!important;}</style><g><marker id="my-svg_flowchart-v2-pointEnd" class="marker flowchart-v2" viewBox="0 0 10 10" refX="5" refY="5" markerUnits="userSpaceOnUse" markerWidth="8" markerHeight="8" orient="auto"><path d="M 0 0 L 10 5 L 0 10 z" class="arrowMarkerPath" style="stroke-width: 1; stroke-dasharray: 1, 0;"/></marker><marker id="my-svg_flowchart-v2-pointStart" class="marker flowchart-v2" viewBox="0 0 10 10" refX="4.5" refY="5" markerUnits="userSpaceOnUse" markerWidth="8" markerHeight="8" orient="auto"><path d="M 0 5 L 10 10 L 10 0 z" class="arrowMarkerPath" style="stroke-width: 1; stroke-dasharray: 1, 0;"/></marker><marker id="my-svg_flowchart-v2-pointEnd-margin" class="marker flowchart-v2" viewBox="0 0 11.5 14" refX="11.5" refY="7" markerUnits="userSpaceOnUse" markerWidth="10.5" markerHeight="14" orient="auto"><path d="M 0 0 L 11.5 7 L 0 14 z" class="arrowMarkerPath" style="stroke-width: 0; stroke-dasharray: 1, 0;"/></marker><marker id="my-svg_flowchart-v2-pointStart-margin" class="marker flowchart-v2" viewBox="0 0 11.5 14" refX="1" refY="7" markerUnits="userSpaceOnUse" markerWidth="11.5" markerHeight="14" orient="auto"><polygon points="0,7 11.5,14 11.5,0" class="arrowMarkerPath" style="stroke-width: 0; stroke-dasharray: 1, 0;"/></marker><marker id="my-svg_flowchart-v2-circleEnd" class="marker flowchart-v2" viewBox="0 0 10 10" refX="11" refY="5" markerUnits="userSpaceOnUse" markerWidth="11" markerHeight="11" orient="auto"><circle cx="5" cy="5" r="5" class="arrowMarkerPath" style="stroke-width: 1; stroke-dasharray: 1, 0;"/></marker><marker id="my-svg_flowchart-v2-circleStart" class="marker flowchart-v2" viewBox="0 0 10 10" refX="-1" refY="5" markerUnits="userSpaceOnUse" markerWidth="11" markerHeight="11" orient="auto"><circle cx="5" cy="5" r="5" class="arrowMarkerPath" style="stroke-width: 1; stroke-dasharray: 1, 0;"/></marker><marker id="my-svg_flowchart-v2-circleEnd-margin" class="marker flowchart-v2" viewBox="0 0 10 10" refY="5" refX="12.25" markerUnits="userSpaceOnUse" markerWidth="14" markerHeight="14" orient="auto"><circle cx="5" cy="5" r="5" class="arrowMarkerPath" style="stroke-width: 0; stroke-dasharray: 1, 0;"/></marker><marker id="my-svg_flowchart-v2-circleStart-margin" class="marker flowchart-v2" viewBox="0 0 10 10" refX="-2" refY="5" markerUnits="userSpaceOnUse" markerWidth="14" markerHeight="14" orient="auto"><circle cx="5" cy="5" r="5" class="arrowMarkerPath" style="stroke-width: 0; stroke-dasharray: 1, 0;"/></marker><marker id="my-svg_flowchart-v2-crossEnd" class="marker cross flowchart-v2" viewBox="0 0 11 11" refX="12" refY="5.2" markerUnits="userSpaceOnUse" markerWidth="11" markerHeight="11" orient="auto"><path d="M 1,1 l 9,9 M 10,1 l -9,9" class="arrowMarkerPath" style="stroke-width: 2; stroke-dasharray: 1, 0;"/></marker><marker id="my-svg_flowchart-v2-crossStart" class="marker cross flowchart-v2" viewBox="0 0 11 11" refX="-1" refY="5.2" markerUnits="userSpaceOnUse" markerWidth="11" markerHeight="11" orient="auto"><path d="M 1,1 l 9,9 M 10,1 l -9,9" class="arrowMarkerPath" style="stroke-width: 2; stroke-dasharray: 1, 0;"/></marker><marker id="my-svg_flowchart-v2-crossEnd-margin" class="marker cross flowchart-v2" viewBox="0 0 15 15" refX="17.7" refY="7.5" markerUnits="userSpaceOnUse" markerWidth="12" markerHeight="12" orient="auto"><path d="M 1,1 L 14,14 M 1,14 L 14,1" class="arrowMarkerPath" style="stroke-width: 2.5;"/></marker><marker id="my-svg_flowchart-v2-crossStart-margin" class="marker cross flowchart-v2" viewBox="0 0 15 15" refX="-3.5" refY="7.5" markerUnits="userSpaceOnUse" markerWidth="12" markerHeight="12" orient="auto"><path d="M 1,1 L 14,14 M 1,14 L 14,1" class="arrowMarkerPath" style="stroke-width: 2.5; stroke-dasharray: 1, 0;"/></marker><g class="root"><g class="clusters"/><g class="edgePaths"><path d="M59.18,38.425L68.918,35.938C78.656,33.45,98.131,28.475,116.859,27.615C135.586,26.754,153.566,30.008,162.556,31.635L171.545,33.262" id="my-svg-L_User_Agent_0" class="edge-thickness-normal edge-pattern-solid edge-thickness-normal edge-pattern-solid flowchart-link" style=";" data-edge="true" data-et="edge" data-id="L_User_Agent_0" data-points="W3sieCI6NTkuMTgwMjk1MDE1NTE4NTQ2LCJ5IjozOC40MjUzMjE0MzM1NjkxNDV9LHsieCI6MTE3LjYwNjUwMjUzMjk1ODk4LCJ5IjoyMy41fSx7IngiOjE3NS40ODE1MDI1MzI5NTg5OCwieSI6MzMuOTc0ODI0MTEzNjcwODV9XQ==" data-look="classic" marker-end="url(#my-svg_flowchart-v2-pointEnd)"/><path d="M286.263,33.655L295.325,31.963C304.388,30.27,322.513,26.885,340.663,26.822C358.812,26.759,376.987,30.018,386.074,31.647L395.161,33.277" id="my-svg-L_Agent_Runtime_0" class="edge-thickness-normal edge-pattern-solid edge-thickness-normal edge-pattern-solid flowchart-link" style=";" data-edge="true" data-et="edge" data-id="L_Agent_Runtime_0" data-points="W3sieCI6Mjg2LjI2Mjc1MjUzMjk1OSwieSI6MzMuNjU1MTYwMTQyMzQ4NzU1fSx7IngiOjM0MC42Mzc3NTI1MzI5NTksInkiOjIzLjV9LHsieCI6Mzk5LjA5ODY5MDAzMjk1OSwieSI6MzMuOTgyNTQwNjU4NzM5OTJ9XQ==" data-look="classic" marker-end="url(#my-svg_flowchart-v2-pointEnd)"/><path d="M510.833,35.163L523.121,33.219C535.409,31.275,559.984,27.388,583.236,28.461C606.488,29.535,628.416,35.57,639.38,38.588L650.344,41.605" id="my-svg-L_Runtime_MCP_0" class="edge-thickness-normal edge-pattern-solid edge-thickness-normal edge-pattern-solid flowchart-link" style=";" data-edge="true" data-et="edge" data-id="L_Runtime_MCP_0" data-points="W3sieCI6NTEwLjgzMzA2NTAzMjk1OSwieSI6MzUuMTYyNTU3MjcwMzE1ODl9LHsieCI6NTg0LjU1OTYyNzUzMjk1OSwieSI6MjMuNX0seyJ4Ijo2NTQuMjAwMjUyNTMyOTU5LCJ5Ijo0Mi42NjY4NzY0NDIyMDY4NH1d" data-look="classic" marker-end="url(#my-svg_flowchart-v2-pointEnd)"/><path d="M812.857,64.5L822.502,64.5C832.148,64.5,851.44,64.5,870.065,64.5C888.69,64.5,906.648,64.5,915.627,64.5L924.607,64.5" id="my-svg-L_MCP_InternalAPI_0" class="edge-thickness-normal edge-pattern-solid edge-thickness-normal edge-pattern-solid flowchart-link" style=";" data-edge="true" data-et="edge" data-id="L_MCP_InternalAPI_0" data-points="W3sieCI6ODEyLjg1NjUwMjUzMjk1OSwieSI6NjQuNX0seyJ4Ijo4NzAuNzMxNTAyNTMyOTU5LCJ5Ijo2NC41fSx7IngiOjkyOC42MDY1MDI1MzI5NTksInkiOjY0LjV9XQ==" data-look="classic" marker-end="url(#my-svg_flowchart-v2-pointEnd)"/><path d="M928.607,84.198L918.961,87.748C909.315,91.298,890.023,98.399,871.37,99.258C852.717,100.117,834.703,94.734,825.696,92.042L816.689,89.351" id="my-svg-L_InternalAPI_MCP_0" class="edge-thickness-normal edge-pattern-solid edge-thickness-normal edge-pattern-solid flowchart-link" style=";" data-edge="true" data-et="edge" data-id="L_InternalAPI_MCP_0" data-points="W3sieCI6OTI4LjYwNjUwMjUzMjk1OSwieSI6ODQuMTk3NzEzNTY0MzE0Nzd9LHsieCI6ODcwLjczMTUwMjUzMjk1OSwieSI6MTA1LjV9LHsieCI6ODEyLjg1NjUwMjUzMjk1OSwieSI6ODguMjA1Mzg2NjMwMjI0MzV9XQ==" data-look="classic" marker-end="url(#my-svg_flowchart-v2-pointEnd)"/><path d="M654.2,64.5L642.593,64.5C630.987,64.5,607.773,64.5,584.537,62.66C561.301,60.821,538.043,57.142,526.413,55.302L514.784,53.462" id="my-svg-L_MCP_Runtime_0" class="edge-thickness-normal edge-pattern-solid edge-thickness-normal edge-pattern-solid flowchart-link" style=";" data-edge="true" data-et="edge" data-id="L_MCP_Runtime_0" data-points="W3sieCI6NjU0LjIwMDI1MjUzMjk1OSwieSI6NjQuNX0seyJ4Ijo1ODQuNTU5NjI3NTMyOTU5LCJ5Ijo2NC41fSx7IngiOjUxMC44MzMwNjUwMzI5NTksInkiOjUyLjgzNzQ0MjcyOTY4NDExfV0=" data-look="classic" marker-end="url(#my-svg_flowchart-v2-pointEnd)"/><path d="M399.099,54.017L389.355,55.765C379.612,57.512,360.125,61.006,341.974,61.183C323.823,61.36,307.009,58.219,298.602,56.649L290.195,55.079" id="my-svg-L_Runtime_Agent_0" class="edge-thickness-normal edge-pattern-solid edge-thickness-normal edge-pattern-solid flowchart-link" style=";" data-edge="true" data-et="edge" data-id="L_Runtime_Agent_0" data-points="W3sieCI6Mzk5LjA5ODY5MDAzMjk1OSwieSI6NTQuMDE3NDU5MzQxMjYwMDh9LHsieCI6MzQwLjYzNzc1MjUzMjk1OSwieSI6NjQuNX0seyJ4IjoyODYuMjYyNzUyNTMyOTU5LCJ5Ijo1NC4zNDQ4Mzk4NTc2NTEyNDV9XQ==" data-look="classic" marker-end="url(#my-svg_flowchart-v2-pointEnd)"/><path d="M175.482,54.025L165.836,55.771C156.19,57.517,136.898,61.008,118.163,60.588C99.428,60.167,81.25,55.835,72.161,53.668L63.071,51.502" id="my-svg-L_Agent_User_0" class="edge-thickness-normal edge-pattern-solid edge-thickness-normal edge-pattern-solid flowchart-link" style=";" data-edge="true" data-et="edge" data-id="L_Agent_User_0" data-points="W3sieCI6MTc1LjQ4MTUwMjUzMjk1ODk4LCJ5Ijo1NC4wMjUxNzU4ODYzMjkxNX0seyJ4IjoxMTcuNjA2NTAyNTMyOTU4OTgsInkiOjY0LjV9LHsieCI6NTkuMTgwMjk1MDE1NTE4NjYsInkiOjUwLjU3NDY3ODU2NjQzMDg5fV0=" data-look="classic" marker-end="url(#my-svg_flowchart-v2-pointEnd)"/><path d="M514.919,166L526.526,166C538.133,166,561.346,166,588.424,155.459C615.502,144.917,646.444,123.835,661.915,113.294L677.387,102.752" id="my-svg-L_APICtr_MCP_0" class="edge-thickness-normal edge-pattern-dotted edge-thickness-normal edge-pattern-solid flowchart-link" style=";" data-edge="true" data-et="edge" data-id="L_APICtr_MCP_0" data-points="W3sieCI6NTE0LjkxOTAwMjUzMjk1OSwieSI6MTY2fSx7IngiOjU4NC41NTk2Mjc1MzI5NTksInkiOjE2Nn0seyJ4Ijo2ODAuNjkyMTcwNjM2NDA3MiwieSI6MTAwLjV9XQ==" data-look="classic" marker-end="url(#my-svg_flowchart-v2-pointEnd)"/></g><g class="edgeLabels"><g class="edgeLabel" transform="translate(116.88605, 23.68404)"><g class="label" data-id="L_User_Agent_0" transform="translate(-23.171875, -10.5)"><foreignObject width="46.34375" height="21"><div xmlns="http://www.w3.org/1999/xhtml" class="labelBkg" style="display: table-cell; white-space: nowrap; line-height: 1.5; max-width: 200px; text-align: center;"><span class="edgeLabel"><p>prompt</p></span></div></foreignObject></g></g><g class="edgeLabel" transform="translate(340.637752532959, 23.5)"><g class="label" data-id="L_Agent_Runtime_0" transform="translate(-24.375, -10.5)"><foreignObject width="48.75" height="21"><div xmlns="http://www.w3.org/1999/xhtml" class="labelBkg" style="display: table-cell; white-space: nowrap; line-height: 1.5; max-width: 200px; text-align: center;"><span class="edgeLabel"><p>tool call</p></span></div></foreignObject></g></g><g class="edgeLabel" transform="translate(583.36784, 23.68852)"><g class="label" data-id="L_Runtime_MCP_0" transform="translate(-39.640625, -10.5)"><foreignObject width="79.28125" height="21"><div xmlns="http://www.w3.org/1999/xhtml" class="labelBkg" style="display: table-cell; white-space: nowrap; line-height: 1.5; max-width: 200px; text-align: center;"><span class="edgeLabel"><p>MCP request</p></span></div></foreignObject></g></g><g class="edgeLabel" transform="translate(870.731502532959, 64.5)"><g class="label" data-id="L_MCP_InternalAPI_0" transform="translate(-10.1875, -10.5)"><foreignObject width="20.375" height="21"><div xmlns="http://www.w3.org/1999/xhtml" class="labelBkg" style="display: table-cell; white-space: nowrap; line-height: 1.5; max-width: 200px; text-align: center;"><span class="edgeLabel"><p>call</p></span></div></foreignObject></g></g><g class="edgeLabel" transform="translate(870.731502532959, 105.5)"><g class="label" data-id="L_InternalAPI_MCP_0" transform="translate(-27.875, -10.5)"><foreignObject width="55.75" height="21"><div xmlns="http://www.w3.org/1999/xhtml" class="labelBkg" style="display: table-cell; white-space: nowrap; line-height: 1.5; max-width: 200px; text-align: center;"><span class="edgeLabel"><p>response</p></span></div></foreignObject></g></g><g class="edgeLabel" transform="translate(584.559627532959, 64.5)"><g class="label" data-id="L_MCP_Runtime_0" transform="translate(-31.28125, -10.5)"><foreignObject width="62.5625" height="21"><div xmlns="http://www.w3.org/1999/xhtml" class="labelBkg" style="display: table-cell; white-space: nowrap; line-height: 1.5; max-width: 200px; text-align: center;"><span class="edgeLabel"><p>tool result</p></span></div></foreignObject></g></g><g class="edgeLabel" transform="translate(342.64481, 64.14012)"><g class="label" data-id="L_Runtime_Agent_0" transform="translate(-21.6484375, -10.5)"><foreignObject width="43.296875" height="21"><div xmlns="http://www.w3.org/1999/xhtml" class="labelBkg" style="display: table-cell; white-space: nowrap; line-height: 1.5; max-width: 200px; text-align: center;"><span class="edgeLabel"><p>answer</p></span></div></foreignObject></g></g><g class="edgeLabel" transform="translate(117.60650253295898, 64.5)"><g class="label" data-id="L_Agent_User_0" transform="translate(-27.875, -10.5)"><foreignObject width="55.75" height="21"><div xmlns="http://www.w3.org/1999/xhtml" class="labelBkg" style="display: table-cell; white-space: nowrap; line-height: 1.5; max-width: 200px; text-align: center;"><span class="edgeLabel"><p>response</p></span></div></foreignObject></g></g><g class="edgeLabel" transform="translate(584.559627532959, 166)"><g class="label" data-id="L_APICtr_MCP_0" transform="translate(-36.2109375, -21)"><foreignObject width="72.421875" height="42"><div xmlns="http://www.w3.org/1999/xhtml" class="labelBkg" style="display: table-cell; white-space: nowrap; line-height: 1.5; max-width: 200px; text-align: center;"><span class="edgeLabel"><p>catalog and<br />governance</p></span></div></foreignObject></g></g></g><g class="nodes"><g class="node default msNeutral" id="my-svg-flowchart-User-0" data-look="classic" transform="translate(33.86575126647949, 44)"><g class="basic label-container outer-path"><path d="M-7.875 -18 C-3.292584219773686 -18, 1.2898315604526278 -18, 7.875 -18 C7.875 -18, 7.874999999999999 -18, 7.874999999999999 -18 C8.296170096285456 -17.986493894769986, 8.717340192570912 -17.972987789539975, 9.028263959652831 -17.963017069506055 C9.432257850314137 -17.924044264747696, 9.836251740975445 -17.88507145998934, 10.176788910321106 -17.85222024881843 C10.449052278113225 -17.808202818947752, 10.721315645905342 -17.764185389077074, 11.315855316624699 -17.668064825839178 C11.641686021723284 -17.593696093644486, 11.967516726821872 -17.51932736144979, 12.440782510371129 -17.41130753470253 C12.799963806798313 -17.30470441130404, 13.159145103225498 -17.19810128790555, 13.546947924425172 -17.083003446192034 C13.848444056186167 -16.972050082704296, 14.149940187947164 -16.861096719216558, 14.629806087828733 -16.68450163222839 C14.985716087497137 -16.526950833070213, 15.34162608716554 -16.369400033912036, 15.684907304116045 -16.217439622243546 C15.910996388022243 -16.09948909198665, 16.13708547192844 -15.981538561729758, 16.707915936070876 -15.683736674221011 C16.96607429258802 -15.52723956139342, 17.22423264910516 -15.37074244856583, 17.694628221789877 -15.085585888053133 C17.947711717932084 -14.9090457969523, 18.20079521407429 -14.732505705851466, 18.640989548841887 -14.425445193623219 C18.890621433111686 -14.22637040890148, 19.140253317381486 -14.027295624179745, 19.543111115540185 -13.706027250644421 C19.816582910681326 -13.457667401964434, 20.09005470582247 -13.209307553284447, 20.397285910862756 -12.930288301759097 C20.65451892829684 -12.66467409203491, 20.911751945730924 -12.399059882310722, 21.200003947355675 -12.101416024703706 C21.437925255140847 -11.821940118473313, 21.67584656292602 -11.542464212242919, 21.947966684424536 -11.222816433457204 C22.150880999522485 -10.95092973710035, 22.353795314620434 -10.679043040743492, 22.638100582745203 -10.298099882199057 C22.829334403431947 -10.0043133801532, 23.02056822411869 -9.710526878107343, 23.267569734096227 -9.331066229589453 C23.488234097918447 -8.939254306933293, 23.708898461740667 -8.547442384277133, 23.833787514714004 -8.325689224335035 C23.99673646431421 -7.987322243941219, 24.159685413914417 -7.648955263547403, 24.334427214284624 -7.286100176203093 C24.468533754219873 -6.9548544297894646, 24.60264029415512 -6.623608683375836, 24.767431596895683 -6.216570979583546 C24.885617812544037 -5.860612928466944, 25.003804028192395 -5.504654877350342, 25.13102135465989 -5.121496559358589 C25.232880313389664 -4.733064203769995, 25.33473927211944 -4.3446318481814, 25.423702419272825 -4.005376811213661 C25.472788167939342 -3.753331866087747, 25.52187391660586 -3.5012869209618334, 25.6442721014601 -2.872798110600833 C25.67423863504018 -2.640383593715111, 25.70420516862026 -2.407969076829389, 25.791824033085568 -1.728414466338275 C25.80721049185332 -1.488757951304609, 25.822596950621065 -1.249101436270943, 25.865751891612383 -0.576928396289793 C25.865751891612383 -0.23503665620606246, 25.865751891612383 0.10685508387766807, 25.865751891612383 0.5769283962897886 C25.84061522093916 0.9684523319805958, 25.815478550265937 1.359976267671403, 25.791824033085568 1.7284144663382628 C25.74626610828101 2.0817527346926163, 25.700708183476447 2.4350910030469697, 25.644272101460103 2.8727981106008205 C25.590847214840196 3.1471236120402537, 25.53742232822029 3.421449113479687, 25.423702419272825 4.005376811213657 C25.348642321515545 4.291613495214311, 25.273582223758268 4.577850179214965, 25.131021354659893 5.121496559358577 C25.041166305713904 5.392125650326062, 24.951311256767912 5.662754741293549, 24.767431596895687 6.216570979583534 C24.63336640727657 6.5477145899168665, 24.49930121765745 6.878858200250198, 24.334427214284624 7.286100176203088 C24.216120447653143 7.53176670847265, 24.097813681021663 7.77743324074221, 23.833787514714004 8.325689224335031 C23.67269816881647 8.61171967004119, 23.51160882291894 8.897750115747348, 23.26756973409623 9.33106622958945 C23.099075255686042 9.589918995530148, 22.93058077727585 9.848771761470847, 22.63810058274521 10.298099882199049 C22.494902487925856 10.48997228364217, 22.351704393106505 10.68184468508529, 21.94796668442454 11.2228164334572 C21.758652269363967 11.44519591768273, 21.5693378543034 11.667575401908257, 21.200003947355682 12.101416024703695 C20.92258181829306 12.38787714974124, 20.64515968923044 12.674338274778785, 20.39728591086276 12.930288301759093 C20.160958985463573 13.144914162538836, 19.924632060064386 13.359540023318578, 19.543111115540203 13.706027250644409 C19.188281494437778 13.98899443106082, 18.833451873335353 14.271961611477233, 18.640989548841894 14.425445193623217 C18.378260344287362 14.608713713356499, 18.11553113973283 14.791982233089781, 17.694628221789884 15.085585888053126 C17.447778417200674 15.235227690245576, 17.200928612611467 15.384869492438028, 16.707915936070883 15.68373667422101 C16.384712285269362 15.852351811822343, 16.061508634467838 16.020966949423677, 15.684907304116049 16.217439622243543 C15.279196425726532 16.397035793120978, 14.873485547337015 16.576631963998413, 14.629806087828742 16.68450163222839 C14.268337246552212 16.81752550719949, 13.906868405275684 16.950549382170593, 13.546947924425183 17.08300344619203 C13.141421487277858 17.20336156408565, 12.735895050130534 17.323719681979274, 12.44078251037115 17.411307534702527 C12.171914780233308 17.47267483958058, 11.903047050095466 17.534042144458635, 11.315855316624706 17.668064825839174 C10.993963740646073 17.720105759536946, 10.672072164667442 17.772146693234717, 10.176788910321118 17.85222024881843 C9.777207893345478 17.89076734895959, 9.377626876369838 17.929314449100744, 9.028263959652831 17.963017069506055 C8.679586780346114 17.974198467987463, 8.330909601039394 17.98537986646887, 7.8750000000000036 18 C7.875000000000003 18, 7.875000000000002 18, 7.875 18 C3.2077478875432446 18, -1.4595042249135108 18, -7.8749999999999964 18 C-8.245557065532129 17.988116956153956, -8.616114131064261 17.976233912307915, -9.028263959652826 17.963017069506055 C-9.424872731106923 17.92475669831571, -9.82148150256102 17.886496327125368, -10.176788910321111 17.85222024881843 C-10.572377721006431 17.788264517743873, -10.967966531691753 17.72430878666931, -11.3158553166247 17.668064825839174 C-11.638616118747652 17.59439677896568, -11.961376920870604 17.520728732092188, -12.440782510371127 17.41130753470253 C-12.7592935806546 17.31677512094112, -13.077804650938072 17.22224270717971, -13.546947924425162 17.083003446192038 C-13.904123309221465 16.951559602893933, -14.26129869401777 16.820115759595833, -14.629806087828737 16.68450163222839 C-14.928571581464034 16.552247010759526, -15.227337075099333 16.41999238929066, -15.684907304116043 16.217439622243546 C-15.895998287408434 16.107313591470135, -16.107089270700826 15.997187560696721, -16.707915936070876 15.683736674221013 C-17.02664923291138 15.490518676591536, -17.345382529751888 15.29730067896206, -17.694628221789863 15.085585888053139 C-18.059965088599824 14.830742704944578, -18.42530195540979 14.575899521836018, -18.640989548841887 14.42544519362322 C-18.88502147817593 14.23083622394169, -19.12905340750997 14.03622725426016, -19.543111115540185 13.706027250644423 C-19.735132002319396 13.531638961865802, -19.927152889098604 13.357250673087181, -20.39728591086275 12.930288301759106 C-20.666895020591166 12.651894760644945, -20.936504130319584 12.373501219530786, -21.200003947355682 12.101416024703703 C-21.41969653116694 11.843352614896844, -21.6393891149782 11.585289205089985, -21.947966684424536 11.222816433457206 C-22.145378445122667 10.958302658703088, -22.342790205820798 10.69378888394897, -22.638100582745203 10.29809988219906 C-22.845375283082657 9.979670281430407, -23.05264998342011 9.661240680661754, -23.267569734096224 9.33106622958946 C-23.47638761811569 8.960288931409245, -23.685205502135155 8.589511633229032, -23.833787514714 8.325689224335036 C-23.98614590162166 8.009313773974034, -24.138504288529322 7.692938323613033, -24.334427214284624 7.286100176203095 C-24.456755010398265 6.983948154755357, -24.579082806511906 6.681796133307619, -24.767431596895683 6.2165709795835475 C-24.9082024850086 5.792591493382567, -25.04897337312152 5.368612007181585, -25.13102135465989 5.121496559358584 C-25.21223810351057 4.811781896429328, -25.29345485236125 4.502067233500072, -25.42370241927282 4.005376811213663 C-25.46984609805859 3.7684387731187186, -25.515989776844354 3.5315007350237737, -25.6442721014601 2.8727981106008347 C-25.686541435376217 2.54496550377152, -25.728810769292334 2.2171328969422053, -25.791824033085565 1.7284144663382852 C-25.82084341427686 1.2764141802609585, -25.84986279546816 0.8244138941836316, -25.865751891612383 0.5769283962897952 C-25.865751891612383 0.31035035099160246, -25.865751891612383 0.04377230569340973, -25.865751891612383 -0.5769283962897864 C-25.845121922987605 -0.8982568098316733, -25.824491954362824 -1.2195852233735602, -25.791824033085568 -1.7284144663382603 C-25.75550685538835 -2.010083324919977, -25.719189677691134 -2.2917521835016936, -25.644272101460103 -2.8727981106008262 C-25.56889730329234 -3.2598317687230627, -25.493522505124574 -3.646865426845299, -25.423702419272825 -4.005376811213655 C-25.3363122880311 -4.338633256760829, -25.24892215678937 -4.671889702308003, -25.131021354659893 -5.121496559358575 C-25.00053202889461 -5.514509617912971, -24.87004270312933 -5.907522676467367, -24.76743159689569 -6.2165709795835244 C-24.603278097045113 -6.622033297906464, -24.43912459719454 -7.0274956162294036, -24.334427214284624 -7.286100176203086 C-24.17286323949724 -7.6215912267643615, -24.01129926470986 -7.957082277325637, -23.833787514714004 -8.32568922433503 C-23.69466932527043 -8.572707656936345, -23.555551135826853 -8.81972608953766, -23.267569734096227 -9.331066229589455 C-23.121050963552047 -9.55615840694414, -22.974532193007864 -9.781250584298826, -22.638100582745206 -10.298099882199054 C-22.41968493231668 -10.590756955698183, -22.201269281888155 -10.883414029197311, -21.947966684424543 -11.2228164334572 C-21.747519395678825 -11.458273224591762, -21.547072106933104 -11.693730015726324, -21.200003947355686 -12.101416024703695 C-20.912240664172042 -12.398555240395735, -20.624477380988402 -12.695694456087773, -20.397285910862763 -12.930288301759086 C-20.113332984142957 -13.188166836823273, -19.82938005742315 -13.44604537188746, -19.543111115540206 -13.706027250644407 C-19.21053169058796 -13.971250491733638, -18.87795226563571 -14.23647373282287, -18.640989548841894 -14.425445193623215 C-18.434014363971077 -14.569822122777751, -18.22703917910026 -14.714199051932287, -17.694628221789888 -15.085585888053124 C-17.446018373487934 -15.236294639087404, -17.19740852518598 -15.387003390121686, -16.707915936070883 -15.683736674221008 C-16.39445767943682 -15.847267645927404, -16.08099942280275 -16.0107986176338, -15.684907304116052 -16.217439622243543 C-15.448958439775453 -16.321887185312747, -15.213009575434853 -16.426334748381947, -14.629806087828744 -16.684501632228386 C-14.408177294822133 -16.766063076768923, -14.186548501815523 -16.84762452130946, -13.546947924425186 -17.08300344619203 C-13.234155034261173 -17.175838734109323, -12.921362144097161 -17.26867402202662, -12.44078251037115 -17.411307534702523 C-12.082556669881576 -17.493070245152197, -11.724330829392002 -17.574832955601867, -11.31585531662471 -17.668064825839174 C-10.91765050395392 -17.732443491827343, -10.51944569128313 -17.796822157815516, -10.17678891032112 -17.85222024881843 C-9.769107450687633 -17.891548788920584, -9.361425991054146 -17.930877329022735, -9.028263959652833 -17.963017069506055 C-8.577648577925183 -17.977467427728428, -8.127033196197534 -17.9919177859508, -7.875000000000005 -18 C-7.8750000000000036 -18, -7.875000000000002 -18, -7.875 -18" stroke="none" stroke-width="0" fill="#F3F2F1" style="fill:#F3F2F1 !important;stroke:#D2D0CE !important;stroke-width:2px !important"/><path d="M-7.875 -18 C-3.1389733420982786 -18, 1.5970533158034428 -18, 7.875 -18 M-7.875 -18 C-3.1120032988298236 -18, 1.6509934023403527 -18, 7.875 -18 M7.875 -18 C7.875 -18, 7.874999999999999 -18, 7.874999999999999 -18 M7.875 -18 C7.875 -18, 7.875 -18, 7.874999999999999 -18 M7.874999999999999 -18 C8.255409738191428 -17.98780100011884, 8.635819476382858 -17.975602000237675, 9.028263959652831 -17.963017069506055 M7.874999999999999 -18 C8.31014466005962 -17.986045757709586, 8.745289320119241 -17.972091515419173, 9.028263959652831 -17.963017069506055 M9.028263959652831 -17.963017069506055 C9.327861912283565 -17.934115215335023, 9.627459864914298 -17.90521336116399, 10.176788910321106 -17.85222024881843 M9.028263959652831 -17.963017069506055 C9.428614860375903 -17.924395699605704, 9.828965761098974 -17.88577432970535, 10.176788910321106 -17.85222024881843 M10.176788910321106 -17.85222024881843 C10.60099857556786 -17.78363731993642, 11.025208240814615 -17.715054391054416, 11.315855316624699 -17.668064825839178 M10.176788910321106 -17.85222024881843 C10.545923421046831 -17.79254144380518, 10.915057931772559 -17.73286263879193, 11.315855316624699 -17.668064825839178 M11.315855316624699 -17.668064825839178 C11.578183699022388 -17.608190084409582, 11.840512081420076 -17.548315342979986, 12.440782510371129 -17.41130753470253 M11.315855316624699 -17.668064825839178 C11.660829148268757 -17.589326799931055, 12.005802979912815 -17.51058877402293, 12.440782510371129 -17.41130753470253 M12.440782510371129 -17.41130753470253 C12.832810618669386 -17.29495564995714, 13.224838726967644 -17.17860376521175, 13.546947924425172 -17.083003446192034 M12.440782510371129 -17.41130753470253 C12.780231995142081 -17.310560709429218, 13.119681479913034 -17.209813884155903, 13.546947924425172 -17.083003446192034 M13.546947924425172 -17.083003446192034 C13.895542135726242 -16.954717554063674, 14.244136347027311 -16.826431661935317, 14.629806087828733 -16.68450163222839 M13.546947924425172 -17.083003446192034 C13.961224813767798 -16.930545721380362, 14.375501703110423 -16.77808799656869, 14.629806087828733 -16.68450163222839 M14.629806087828733 -16.68450163222839 C14.8915884083438 -16.568618364433, 15.153370728858865 -16.45273509663761, 15.684907304116045 -16.217439622243546 M14.629806087828733 -16.68450163222839 C14.860571593898614 -16.582348588106775, 15.091337099968493 -16.480195543985158, 15.684907304116045 -16.217439622243546 M15.684907304116045 -16.217439622243546 C16.049962508972996 -16.026990555698692, 16.415017713829943 -15.83654148915384, 16.707915936070876 -15.683736674221011 M15.684907304116045 -16.217439622243546 C16.085210038500353 -16.00860194212139, 16.48551277288466 -15.799764261999234, 16.707915936070876 -15.683736674221011 M16.707915936070876 -15.683736674221011 C16.945015022648256 -15.54000581458891, 17.182114109225637 -15.396274954956812, 17.694628221789877 -15.085585888053133 M16.707915936070876 -15.683736674221011 C16.985122594760817 -15.515692368676023, 17.262329253450755 -15.347648063131032, 17.694628221789877 -15.085585888053133 M17.694628221789877 -15.085585888053133 C17.971652182936356 -14.892345964931344, 18.24867614408284 -14.699106041809557, 18.640989548841887 -14.425445193623219 M17.694628221789877 -15.085585888053133 C17.98233884052288 -14.88489141521694, 18.27004945925588 -14.684196942380746, 18.640989548841887 -14.425445193623219 M18.640989548841887 -14.425445193623219 C18.94811953263352 -14.180517204621506, 19.255249516425152 -13.935589215619794, 19.543111115540185 -13.706027250644421 M18.640989548841887 -14.425445193623219 C18.9180121474819 -14.204527043088756, 19.195034746121912 -13.983608892554296, 19.543111115540185 -13.706027250644421 M19.543111115540185 -13.706027250644421 C19.82344987808844 -13.451431003855296, 20.103788640636694 -13.19683475706617, 20.397285910862756 -12.930288301759097 M19.543111115540185 -13.706027250644421 C19.74847496174712 -13.519521239148899, 19.953838807954057 -13.333015227653378, 20.397285910862756 -12.930288301759097 M20.397285910862756 -12.930288301759097 C20.661335518853384 -12.657635402632785, 20.925385126844013 -12.384982503506471, 21.200003947355675 -12.101416024703706 M20.397285910862756 -12.930288301759097 C20.61182327424943 -12.708760860217245, 20.82636063763611 -12.487233418675395, 21.200003947355675 -12.101416024703706 M21.200003947355675 -12.101416024703706 C21.451891632047726 -11.805534417449135, 21.703779316739777 -11.509652810194561, 21.947966684424536 -11.222816433457204 M21.200003947355675 -12.101416024703706 C21.387998677968273 -11.88058671692294, 21.57599340858087 -11.659757409142172, 21.947966684424536 -11.222816433457204 M21.947966684424536 -11.222816433457204 C22.08755717302169 -11.035777895692144, 22.22714766161884 -10.848739357927082, 22.638100582745203 -10.298099882199057 M21.947966684424536 -11.222816433457204 C22.163318087196142 -10.934265172659643, 22.37866948996775 -10.645713911862083, 22.638100582745203 -10.298099882199057 M22.638100582745203 -10.298099882199057 C22.786267034885363 -10.070476423448488, 22.934433487025526 -9.842852964697919, 23.267569734096227 -9.331066229589453 M22.638100582745203 -10.298099882199057 C22.848630146403984 -9.974669937315666, 23.059159710062765 -9.651239992432274, 23.267569734096227 -9.331066229589453 M23.267569734096227 -9.331066229589453 C23.40435908304656 -9.088182889104557, 23.5411484319969 -8.84529954861966, 23.833787514714004 -8.325689224335035 M23.267569734096227 -9.331066229589453 C23.476053209629306 -8.960882707539353, 23.684536685162385 -8.590699185489251, 23.833787514714004 -8.325689224335035 M23.833787514714004 -8.325689224335035 C23.93460044230742 -8.116349023136207, 24.035413369900837 -7.90700882193738, 24.334427214284624 -7.286100176203093 M23.833787514714004 -8.325689224335035 C23.984260162976465 -8.01322955061913, 24.134732811238926 -7.700769876903224, 24.334427214284624 -7.286100176203093 M24.334427214284624 -7.286100176203093 C24.442300221410044 -7.019651763020597, 24.55017322853546 -6.753203349838099, 24.767431596895683 -6.216570979583546 M24.334427214284624 -7.286100176203093 C24.43794408164626 -7.03041151245737, 24.5414609490079 -6.7747228487116455, 24.767431596895683 -6.216570979583546 M24.767431596895683 -6.216570979583546 C24.878905194876623 -5.880830263370815, 24.990378792857562 -5.545089547158085, 25.13102135465989 -5.121496559358589 M24.767431596895683 -6.216570979583546 C24.875698847686035 -5.8904872702468145, 24.98396609847639 -5.564403560910083, 25.13102135465989 -5.121496559358589 M25.13102135465989 -5.121496559358589 C25.22423145960757 -4.7660460316780675, 25.317441564555246 -4.410595503997545, 25.423702419272825 -4.005376811213661 M25.13102135465989 -5.121496559358589 C25.194196891817487 -4.880580855725665, 25.257372428975085 -4.639665152092741, 25.423702419272825 -4.005376811213661 M25.423702419272825 -4.005376811213661 C25.510331898750824 -3.5605527432411077, 25.596961378228823 -3.115728675268555, 25.6442721014601 -2.872798110600833 M25.423702419272825 -4.005376811213661 C25.486520200850805 -3.682820779353569, 25.549337982428785 -3.3602647474934777, 25.6442721014601 -2.872798110600833 M25.6442721014601 -2.872798110600833 C25.682080825283155 -2.579561114806234, 25.719889549106206 -2.2863241190116352, 25.791824033085568 -1.728414466338275 M25.6442721014601 -2.872798110600833 C25.676038586005706 -2.6264235294669955, 25.707805070551316 -2.3800489483331586, 25.791824033085568 -1.728414466338275 M25.791824033085568 -1.728414466338275 C25.813149749845476 -1.3962492139939884, 25.834475466605383 -1.0640839616497018, 25.865751891612383 -0.576928396289793 M25.791824033085568 -1.728414466338275 C25.81505187369976 -1.3666220995968104, 25.838279714313945 -1.0048297328553455, 25.865751891612383 -0.576928396289793 M25.865751891612383 -0.576928396289793 C25.865751891612383 -0.3435703928020426, 25.865751891612383 -0.11021238931429228, 25.865751891612383 0.5769283962897886 M25.865751891612383 -0.576928396289793 C25.865751891612383 -0.30191157001049745, 25.865751891612383 -0.02689474373120193, 25.865751891612383 0.5769283962897886 M25.865751891612383 0.5769283962897886 C25.84376715265116 0.9193584513726913, 25.82178241368994 1.261788506455594, 25.791824033085568 1.7284144663382628 M25.865751891612383 0.5769283962897886 C25.837104234773168 1.0231387755329724, 25.80845657793395 1.4693491547761561, 25.791824033085568 1.7284144663382628 M25.791824033085568 1.7284144663382628 C25.751919817461584 2.0379036827392203, 25.712015601837603 2.347392899140178, 25.644272101460103 2.8727981106008205 M25.791824033085568 1.7284144663382628 C25.75432632421708 2.019239291562127, 25.716828615348586 2.310064116785991, 25.644272101460103 2.8727981106008205 M25.644272101460103 2.8727981106008205 C25.58269936875669 3.1889610796311962, 25.52112663605327 3.505124048661572, 25.423702419272825 4.005376811213657 M25.644272101460103 2.8727981106008205 C25.580578297445324 3.199852332526471, 25.516884493430542 3.5269065544521214, 25.423702419272825 4.005376811213657 M25.423702419272825 4.005376811213657 C25.324608200415806 4.3832660154215946, 25.225513981558787 4.761155219629532, 25.131021354659893 5.121496559358577 M25.423702419272825 4.005376811213657 C25.34161094515134 4.318427180708817, 25.259519471029858 4.631477550203976, 25.131021354659893 5.121496559358577 M25.131021354659893 5.121496559358577 C25.036195824013245 5.407095949269737, 24.941370293366592 5.692695339180897, 24.767431596895687 6.216570979583534 M25.131021354659893 5.121496559358577 C25.029773933861833 5.426437659216547, 24.92852651306377 5.731378759074517, 24.767431596895687 6.216570979583534 M24.767431596895687 6.216570979583534 C24.596637351307887 6.638436068267502, 24.425843105720087 7.0603011569514695, 24.334427214284624 7.286100176203088 M24.767431596895687 6.216570979583534 C24.617690436957535 6.5864345396791535, 24.46794927701938 6.956298099774772, 24.334427214284624 7.286100176203088 M24.334427214284624 7.286100176203088 C24.173900523247326 7.619437284862998, 24.013373832210025 7.9527743935229065, 23.833787514714004 8.325689224335031 M24.334427214284624 7.286100176203088 C24.184887338407403 7.5966229281029065, 24.035347462530186 7.907145680002726, 23.833787514714004 8.325689224335031 M23.833787514714004 8.325689224335031 C23.675828502438097 8.606161445715344, 23.51786949016219 8.886633667095657, 23.26756973409623 9.33106622958945 M23.833787514714004 8.325689224335031 C23.62573827798344 8.695101711419817, 23.41768904125288 9.064514198504604, 23.26756973409623 9.33106622958945 M23.26756973409623 9.33106622958945 C23.04378455378772 9.67486036127829, 22.819999373479213 10.018654492967132, 22.63810058274521 10.298099882199049 M23.26756973409623 9.33106622958945 C23.13257104973307 9.538460460993807, 22.99757236536991 9.745854692398167, 22.63810058274521 10.298099882199049 M22.63810058274521 10.298099882199049 C22.455694473605977 10.542507450907221, 22.273288364466747 10.786915019615394, 21.94796668442454 11.2228164334572 M22.63810058274521 10.298099882199049 C22.362181934579244 10.667805734035483, 22.08626328641328 11.037511585871917, 21.94796668442454 11.2228164334572 M21.94796668442454 11.2228164334572 C21.66145653783591 11.559367554529386, 21.374946391247278 11.895918675601571, 21.200003947355682 12.101416024703695 M21.94796668442454 11.2228164334572 C21.742843573858366 11.463765710963866, 21.537720463292192 11.704714988470533, 21.200003947355682 12.101416024703695 M21.200003947355682 12.101416024703695 C20.96514381244429 12.343928396375388, 20.7302836775329 12.586440768047082, 20.39728591086276 12.930288301759093 M21.200003947355682 12.101416024703695 C20.885659645481404 12.42600232453604, 20.571315343607125 12.750588624368383, 20.39728591086276 12.930288301759093 M20.39728591086276 12.930288301759093 C20.20202644545566 13.107617781959469, 20.006766980048564 13.284947262159843, 19.543111115540203 13.706027250644409 M20.39728591086276 12.930288301759093 C20.177807923123442 13.129612403154603, 19.958329935384125 13.328936504550112, 19.543111115540203 13.706027250644409 M19.543111115540203 13.706027250644409 C19.207552507719203 13.973626310792083, 18.871993899898207 14.241225370939759, 18.640989548841894 14.425445193623217 M19.543111115540203 13.706027250644409 C19.314632519513545 13.888232850904883, 19.086153923486886 14.070438451165357, 18.640989548841894 14.425445193623217 M18.640989548841894 14.425445193623217 C18.308271747095432 14.657534729000046, 17.975553945348974 14.889624264376877, 17.694628221789884 15.085585888053126 M18.640989548841894 14.425445193623217 C18.390203951849653 14.600382369751484, 18.139418354857412 14.77531954587975, 17.694628221789884 15.085585888053126 M17.694628221789884 15.085585888053126 C17.443048343494322 15.238095088723368, 17.191468465198756 15.39060428939361, 16.707915936070883 15.68373667422101 M17.694628221789884 15.085585888053126 C17.316245310683026 15.314963832390909, 16.93786239957617 15.54434177672869, 16.707915936070883 15.68373667422101 M16.707915936070883 15.68373667422101 C16.330929195905163 15.880410415093934, 15.953942455739442 16.07708415596686, 15.684907304116049 16.217439622243543 M16.707915936070883 15.68373667422101 C16.476119704222832 15.804664619903566, 16.24432347237478 15.92559256558612, 15.684907304116049 16.217439622243543 M15.684907304116049 16.217439622243543 C15.376622311869008 16.353908243361932, 15.068337319621966 16.490376864480325, 14.629806087828742 16.68450163222839 M15.684907304116049 16.217439622243543 C15.43413725177931 16.328448085583716, 15.183367199442571 16.43945654892389, 14.629806087828742 16.68450163222839 M14.629806087828742 16.68450163222839 C14.312886817702916 16.801130853204313, 13.995967547577088 16.917760074180233, 13.546947924425183 17.08300344619203 M14.629806087828742 16.68450163222839 C14.282030153261175 16.812486390954753, 13.93425421869361 16.940471149681112, 13.546947924425183 17.08300344619203 M13.546947924425183 17.08300344619203 C13.21481544350812 17.181578623129248, 12.88268296259106 17.280153800066465, 12.44078251037115 17.411307534702527 M13.546947924425183 17.08300344619203 C13.313940713869801 17.152158763205062, 13.080933503314421 17.221314080218093, 12.44078251037115 17.411307534702527 M12.44078251037115 17.411307534702527 C11.995049847622404 17.513043106297474, 11.549317184873658 17.614778677892417, 11.315855316624706 17.668064825839174 M12.44078251037115 17.411307534702527 C12.001700401109183 17.511525160863034, 11.562618291847215 17.611742787023537, 11.315855316624706 17.668064825839174 M11.315855316624706 17.668064825839174 C11.021816488378024 17.71560274328493, 10.727777660131341 17.763140660730684, 10.176788910321118 17.85222024881843 M11.315855316624706 17.668064825839174 C10.969253619414713 17.72410070030778, 10.62265192220472 17.780136574776385, 10.176788910321118 17.85222024881843 M10.176788910321118 17.85222024881843 C9.80862762404633 17.88773632532663, 9.440466337771543 17.923252401834834, 9.028263959652831 17.963017069506055 M10.176788910321118 17.85222024881843 C9.791042534451565 17.889432737770672, 9.405296158582011 17.92664522672292, 9.028263959652831 17.963017069506055 M9.028263959652831 17.963017069506055 C8.572756923185533 17.9776242935749, 8.117249886718234 17.992231517643745, 7.8750000000000036 18 M9.028263959652831 17.963017069506055 C8.759124343981268 17.97164785313216, 8.489984728309704 17.980278636758264, 7.8750000000000036 18 M7.8750000000000036 18 C7.875000000000003 18, 7.875000000000002 18, 7.875 18 M7.8750000000000036 18 C7.875000000000003 18, 7.875000000000001 18, 7.875 18 M7.875 18 C1.7741671453532089 18, -4.326665709293582 18, -7.8749999999999964 18 M7.875 18 C3.14148563112371 18, -1.59202873775258 18, -7.8749999999999964 18 M-7.8749999999999964 18 C-8.147922635514865 17.991247902290723, -8.420845271029732 17.982495804581443, -9.028263959652826 17.963017069506055 M-7.8749999999999964 18 C-8.189210767291629 17.989923872267113, -8.503421534583259 17.97984774453423, -9.028263959652826 17.963017069506055 M-9.028263959652826 17.963017069506055 C-9.436138118151344 17.923669939976147, -9.844012276649863 17.88432281044624, -10.176788910321111 17.85222024881843 M-9.028263959652826 17.963017069506055 C-9.433557840893247 17.92391885622, -9.838851722133668 17.884820642933942, -10.176788910321111 17.85222024881843 M-10.176788910321111 17.85222024881843 C-10.556253631623282 17.79087133547116, -10.935718352925452 17.72952242212389, -11.3158553166247 17.668064825839174 M-10.176788910321111 17.85222024881843 C-10.536055115330013 17.79413687494362, -10.895321320338915 17.736053501068813, -11.3158553166247 17.668064825839174 M-11.3158553166247 17.668064825839174 C-11.634053278037353 17.595438217582487, -11.952251239450003 17.522811609325803, -12.440782510371127 17.41130753470253 M-11.3158553166247 17.668064825839174 C-11.717215700687635 17.576456937298087, -12.118576084750572 17.484849048756995, -12.440782510371127 17.41130753470253 M-12.440782510371127 17.41130753470253 C-12.817018499959504 17.29964266789571, -13.19325448954788 17.18797780108889, -13.546947924425162 17.083003446192038 M-12.440782510371127 17.41130753470253 C-12.860447009496102 17.286753314226146, -13.280111508621076 17.162199093749763, -13.546947924425162 17.083003446192038 M-13.546947924425162 17.083003446192038 C-13.933516664642202 16.940742576389905, -14.320085404859244 16.798481706587772, -14.629806087828737 16.68450163222839 M-13.546947924425162 17.083003446192038 C-13.863007278357415 16.966690682324327, -14.179066632289668 16.85037791845662, -14.629806087828737 16.68450163222839 M-14.629806087828737 16.68450163222839 C-14.958355721467555 16.53906245549509, -15.286905355106372 16.393623278761787, -15.684907304116043 16.217439622243546 M-14.629806087828737 16.68450163222839 C-14.853976631982114 16.585267982114615, -15.078147176135491 16.48603433200084, -15.684907304116043 16.217439622243546 M-15.684907304116043 16.217439622243546 C-15.990047319549141 16.058248271643606, -16.295187334982238 15.899056921043668, -16.707915936070876 15.683736674221013 M-15.684907304116043 16.217439622243546 C-16.047194712824545 16.02843451317648, -16.409482121533046 15.839429404109417, -16.707915936070876 15.683736674221013 M-16.707915936070876 15.683736674221013 C-16.981167472814448 15.518089986842787, -17.254419009558024 15.352443299464559, -17.694628221789863 15.085585888053139 M-16.707915936070876 15.683736674221013 C-16.935279790264186 15.545907369670712, -17.162643644457493 15.408078065120412, -17.694628221789863 15.085585888053139 M-17.694628221789863 15.085585888053139 C-17.98071435723249 14.886024584437564, -18.266800492675113 14.686463280821991, -18.640989548841887 14.42544519362322 M-17.694628221789863 15.085585888053139 C-18.02992116954865 14.851700042294384, -18.36521411730744 14.617814196535628, -18.640989548841887 14.42544519362322 M-18.640989548841887 14.42544519362322 C-18.866729256333134 14.245423784084855, -19.092468963824377 14.065402374546487, -19.543111115540185 13.706027250644423 M-18.640989548841887 14.42544519362322 C-18.94128227654421 14.185969734405708, -19.24157500424653 13.946494275188195, -19.543111115540185 13.706027250644423 M-19.543111115540185 13.706027250644423 C-19.880524930040732 13.39959695179535, -20.217938744541275 13.093166652946278, -20.39728591086275 12.930288301759106 M-19.543111115540185 13.706027250644423 C-19.817137469111938 13.457163766670568, -20.09116382268369 13.208300282696715, -20.39728591086275 12.930288301759106 M-20.39728591086275 12.930288301759106 C-20.558969439214138 12.763336784271747, -20.720652967565528 12.59638526678439, -21.200003947355682 12.101416024703703 M-20.39728591086275 12.930288301759106 C-20.62245966193022 12.697777916673168, -20.847633412997688 12.465267531587232, -21.200003947355682 12.101416024703703 M-21.200003947355682 12.101416024703703 C-21.458413695763635 11.797873230292494, -21.716823444171585 11.494330435881285, -21.947966684424536 11.222816433457206 M-21.200003947355682 12.101416024703703 C-21.381950415319547 11.88769135038603, -21.563896883283412 11.673966676068355, -21.947966684424536 11.222816433457206 M-21.947966684424536 11.222816433457206 C-22.204885197327936 10.878569031924675, -22.46180371023134 10.534321630392146, -22.638100582745203 10.29809988219906 M-21.947966684424536 11.222816433457206 C-22.169248828958978 10.926318518999139, -22.390530973493416 10.62982060454107, -22.638100582745203 10.29809988219906 M-22.638100582745203 10.29809988219906 C-22.80391218055298 10.04336874131798, -22.96972377836076 9.788637600436903, -23.267569734096224 9.33106622958946 M-22.638100582745203 10.29809988219906 C-22.87917317853889 9.927747638003947, -23.12024577433257 9.557395393808832, -23.267569734096224 9.33106622958946 M-23.267569734096224 9.33106622958946 C-23.381085523324128 9.129507451095215, -23.49460131255203 8.927948672600968, -23.833787514714 8.325689224335036 M-23.267569734096224 9.33106622958946 C-23.39452033724584 9.105652578554787, -23.521470940395453 8.880238927520114, -23.833787514714 8.325689224335036 M-23.833787514714 8.325689224335036 C-24.03085857379186 7.916466953514689, -24.22792963286972 7.507244682694342, -24.334427214284624 7.286100176203095 M-23.833787514714 8.325689224335036 C-23.940933534212743 8.103198222288338, -24.04807955371149 7.880707220241641, -24.334427214284624 7.286100176203095 M-24.334427214284624 7.286100176203095 C-24.44032623943416 7.024527536665375, -24.546225264583693 6.762954897127655, -24.767431596895683 6.2165709795835475 M-24.334427214284624 7.286100176203095 C-24.435679055474075 7.036006170893974, -24.536930896663524 6.785912165584854, -24.767431596895683 6.2165709795835475 M-24.767431596895683 6.2165709795835475 C-24.862853578851905 5.9291751733595675, -24.958275560808126 5.641779367135588, -25.13102135465989 5.121496559358584 M-24.767431596895683 6.2165709795835475 C-24.850206125980918 5.967267286309023, -24.93298065506615 5.717963593034499, -25.13102135465989 5.121496559358584 M-25.13102135465989 5.121496559358584 C-25.190498302435774 4.894685180016915, -25.249975250211655 4.667873800675246, -25.42370241927282 4.005376811213663 M-25.13102135465989 5.121496559358584 C-25.211709502909386 4.813797679618585, -25.292397651158886 4.506098799878585, -25.42370241927282 4.005376811213663 M-25.42370241927282 4.005376811213663 C-25.472957527146576 3.752462242352672, -25.52221263502033 3.499547673491681, -25.6442721014601 2.8727981106008347 M-25.42370241927282 4.005376811213663 C-25.487315699847343 3.6787360601351016, -25.550928980421865 3.35209530905654, -25.6442721014601 2.8727981106008347 M-25.6442721014601 2.8727981106008347 C-25.680182800905424 2.594281817072599, -25.716093500350745 2.3157655235443633, -25.791824033085565 1.7284144663382852 M-25.6442721014601 2.8727981106008347 C-25.684308841272706 2.5622810627627772, -25.724345581085313 2.25176401492472, -25.791824033085565 1.7284144663382852 M-25.791824033085565 1.7284144663382852 C-25.818670691112576 1.3102560973352806, -25.845517349139588 0.8920977283322761, -25.865751891612383 0.5769283962897952 M-25.791824033085565 1.7284144663382852 C-25.809396340889514 1.4547115881802235, -25.826968648693462 1.1810087100221618, -25.865751891612383 0.5769283962897952 M-25.865751891612383 0.5769283962897952 C-25.865751891612383 0.33896113995204147, -25.865751891612383 0.10099388361428768, -25.865751891612383 -0.5769283962897864 M-25.865751891612383 0.5769283962897952 C-25.865751891612383 0.3347613138831138, -25.865751891612383 0.09259423147643236, -25.865751891612383 -0.5769283962897864 M-25.865751891612383 -0.5769283962897864 C-25.84899247963669 -0.8379697657651053, -25.83223306766099 -1.0990111352404242, -25.791824033085568 -1.7284144663382603 M-25.865751891612383 -0.5769283962897864 C-25.85047002379302 -0.8149558228780899, -25.83518815597365 -1.0529832494663933, -25.791824033085568 -1.7284144663382603 M-25.791824033085568 -1.7284144663382603 C-25.74217355645629 -2.11349375847937, -25.692523079827012 -2.4985730506204797, -25.644272101460103 -2.8727981106008262 M-25.791824033085568 -1.7284144663382603 C-25.75889715232054 -1.9837888514037805, -25.72597027155551 -2.2391632364693006, -25.644272101460103 -2.8727981106008262 M-25.644272101460103 -2.8727981106008262 C-25.59559548446153 -3.1227422510818594, -25.546918867462953 -3.372686391562892, -25.423702419272825 -4.005376811213655 M-25.644272101460103 -2.8727981106008262 C-25.571367852540327 -3.2471460204854194, -25.498463603620547 -3.621493930370012, -25.423702419272825 -4.005376811213655 M-25.423702419272825 -4.005376811213655 C-25.331896780391418 -4.355471501084039, -25.240091141510014 -4.705566190954422, -25.131021354659893 -5.121496559358575 M-25.423702419272825 -4.005376811213655 C-25.3508604497929 -4.283154810749881, -25.278018480312976 -4.560932810286108, -25.131021354659893 -5.121496559358575 M-25.131021354659893 -5.121496559358575 C-25.031114377204545 -5.422400457438932, -24.931207399749198 -5.723304355519288, -24.76743159689569 -6.2165709795835244 M-25.131021354659893 -5.121496559358575 C-25.00222993499967 -5.509395795249138, -24.873438515339444 -5.897295031139702, -24.76743159689569 -6.2165709795835244 M-24.76743159689569 -6.2165709795835244 C-24.5988934753386 -6.632863398292447, -24.430355353781508 -7.049155817001371, -24.334427214284624 -7.286100176203086 M-24.76743159689569 -6.2165709795835244 C-24.62239936252255 -6.574803402492676, -24.47736712814941 -6.933035825401827, -24.334427214284624 -7.286100176203086 M-24.334427214284624 -7.286100176203086 C-24.210896563981915 -7.542614214689155, -24.087365913679207 -7.7991282531752235, -23.833787514714004 -8.32568922433503 M-24.334427214284624 -7.286100176203086 C-24.211544813300623 -7.541268111108549, -24.08866241231662 -7.796436046014012, -23.833787514714004 -8.32568922433503 M-23.833787514714004 -8.32568922433503 C-23.632055215763195 -8.68388534873255, -23.43032291681239 -9.042081473130072, -23.267569734096227 -9.331066229589455 M-23.833787514714004 -8.32568922433503 C-23.679018710650222 -8.6004969079911, -23.52424990658644 -8.875304591647174, -23.267569734096227 -9.331066229589455 M-23.267569734096227 -9.331066229589455 C-23.02101509141211 -9.709840369943981, -22.774460448727993 -10.088614510298509, -22.638100582745206 -10.298099882199054 M-23.267569734096227 -9.331066229589455 C-23.107869341215793 -9.576408918613835, -22.948168948335358 -9.821751607638216, -22.638100582745206 -10.298099882199054 M-22.638100582745206 -10.298099882199054 C-22.395570401338794 -10.623068230329586, -22.153040219932382 -10.948036578460119, -21.947966684424543 -11.2228164334572 M-22.638100582745206 -10.298099882199054 C-22.417715843517655 -10.593395355301197, -22.197331104290107 -10.88869082840334, -21.947966684424543 -11.2228164334572 M-21.947966684424543 -11.2228164334572 C-21.66578845925878 -11.55427903313277, -21.383610234093023 -11.88574163280834, -21.200003947355686 -12.101416024703695 M-21.947966684424543 -11.2228164334572 C-21.719046322220606 -11.49171931683956, -21.490125960016673 -11.76062220022192, -21.200003947355686 -12.101416024703695 M-21.200003947355686 -12.101416024703695 C-20.98606478393427 -12.322325775668283, -20.772125620512853 -12.543235526632872, -20.397285910862763 -12.930288301759086 M-21.200003947355686 -12.101416024703695 C-20.901769921358994 -12.40936714201418, -20.603535895362302 -12.717318259324665, -20.397285910862763 -12.930288301759086 M-20.397285910862763 -12.930288301759086 C-20.22102288732993 -13.090365716067565, -20.044759863797093 -13.250443130376045, -19.543111115540206 -13.706027250644407 M-20.397285910862763 -12.930288301759086 C-20.138852389828603 -13.164990787786044, -19.88041886879444 -13.399693273813003, -19.543111115540206 -13.706027250644407 M-19.543111115540206 -13.706027250644407 C-19.334056540719043 -13.872742710888412, -19.125001965897876 -14.039458171132415, -18.640989548841894 -14.425445193623215 M-19.543111115540206 -13.706027250644407 C-19.275499808630617 -13.919440146468848, -19.007888501721027 -14.132853042293286, -18.640989548841894 -14.425445193623215 M-18.640989548841894 -14.425445193623215 C-18.352395847788806 -14.626755666457884, -18.063802146735718 -14.82806613929255, -17.694628221789888 -15.085585888053124 M-18.640989548841894 -14.425445193623215 C-18.414310266177825 -14.583566848421677, -18.187630983513756 -14.741688503220141, -17.694628221789888 -15.085585888053124 M-17.694628221789888 -15.085585888053124 C-17.453059812939024 -15.232026077112064, -17.21149140408816 -15.378466266171003, -16.707915936070883 -15.683736674221008 M-17.694628221789888 -15.085585888053124 C-17.35748951817844 -15.289961351429321, -17.020350814566996 -15.494336814805518, -16.707915936070883 -15.683736674221008 M-16.707915936070883 -15.683736674221008 C-16.446004319429807 -15.82037579686026, -16.184092702788732 -15.957014919499512, -15.684907304116052 -16.217439622243543 M-16.707915936070883 -15.683736674221008 C-16.363560342330743 -15.863386766904954, -16.019204748590603 -16.043036859588902, -15.684907304116052 -16.217439622243543 M-15.684907304116052 -16.217439622243543 C-15.428102326371391 -16.3311195680421, -15.17129734862673 -16.44479951384066, -14.629806087828744 -16.684501632228386 M-15.684907304116052 -16.217439622243543 C-15.269764211103764 -16.401211154737773, -14.854621118091476 -16.584982687232003, -14.629806087828744 -16.684501632228386 M-14.629806087828744 -16.684501632228386 C-14.254853217070352 -16.822487754693817, -13.87990034631196 -16.96047387715925, -13.546947924425186 -17.08300344619203 M-14.629806087828744 -16.684501632228386 C-14.209829621886737 -16.83905685391494, -13.78985315594473 -16.993612075601494, -13.546947924425186 -17.08300344619203 M-13.546947924425186 -17.08300344619203 C-13.260050205402266 -17.168153183241174, -12.973152486379346 -17.25330292029032, -12.44078251037115 -17.411307534702523 M-13.546947924425186 -17.08300344619203 C-13.276372228322336 -17.163308892514546, -13.005796532219485 -17.24361433883706, -12.44078251037115 -17.411307534702523 M-12.44078251037115 -17.411307534702523 C-12.11369219298197 -17.485963765182806, -11.78660187559279 -17.560619995663092, -11.31585531662471 -17.668064825839174 M-12.44078251037115 -17.411307534702523 C-12.041177714526732 -17.50251472168902, -11.641572918682312 -17.59372190867552, -11.31585531662471 -17.668064825839174 M-11.31585531662471 -17.668064825839174 C-10.951849437369532 -17.726914473489398, -10.587843558114354 -17.78576412113962, -10.17678891032112 -17.85222024881843 M-11.31585531662471 -17.668064825839174 C-10.879213122804781 -17.738657749525196, -10.442570928984852 -17.809250673211217, -10.17678891032112 -17.85222024881843 M-10.17678891032112 -17.85222024881843 C-9.920278659831629 -17.87696548418444, -9.663768409342138 -17.90171071955045, -9.028263959652833 -17.963017069506055 M-10.17678891032112 -17.85222024881843 C-9.930086154233763 -17.876019366994704, -9.683383398146407 -17.89981848517098, -9.028263959652833 -17.963017069506055 M-9.028263959652833 -17.963017069506055 C-8.711948064116102 -17.97316070460438, -8.395632168579374 -17.9833043397027, -7.875000000000005 -18 M-9.028263959652833 -17.963017069506055 C-8.721114710191312 -17.97286674810654, -8.413965460729791 -17.982716426707025, -7.875000000000005 -18 M-7.875000000000005 -18 C-7.8750000000000036 -18, -7.875000000000002 -18, -7.875 -18 M-7.875000000000005 -18 C-7.8750000000000036 -18, -7.875000000000002 -18, -7.875 -18" stroke="#D2D0CE" stroke-width="2" fill="none" stroke-dasharray="0 0" style="fill:#F3F2F1 !important;stroke:#D2D0CE !important;stroke-width:2px !important"/></g><g class="label" style="color:#323130 !important" transform="translate(-13.875, -10.5)"><rect/><foreignObject width="27.75" height="21"><div style="color: rgb(50, 49, 48) !important; display: table-cell; white-space: nowrap; line-height: 1.5; max-width: 200px; text-align: center;" xmlns="http://www.w3.org/1999/xhtml"><span style="color:#323130 !important" class="nodeLabel"><p>User</p></span></div></foreignObject></g></g><g class="node default msBlue" id="my-svg-flowchart-Agent-1" data-look="classic" transform="translate(230.87212753295898, 44)"><rect class="basic label-container" style="fill:#0078D4 !important;stroke:#005A9E !important;stroke-width:2px !important" x="-55.390625" y="-36" width="110.78125" height="72"/><g class="label" style="color:#fff !important" transform="translate(-25.390625, -21)"><rect/><foreignObject width="50.78125" height="42"><div style="color: rgb(255, 255, 255) !important; display: table-cell; white-space: nowrap; line-height: 1.5; max-width: 200px; text-align: center;" xmlns="http://www.w3.org/1999/xhtml"><span style="color:#fff !important" class="nodeLabel"><p>Foundry<br />Agent</p></span></div></foreignObject></g></g><g class="node default msBlue" id="my-svg-flowchart-Runtime-2" data-look="classic" transform="translate(454.965877532959, 44)"><rect class="basic label-container" style="fill:#0078D4 !important;stroke:#005A9E !important;stroke-width:2px !important" x="-55.8671875" y="-36" width="111.734375" height="72"/><g class="label" style="color:#fff !important" transform="translate(-25.8671875, -21)"><rect/><foreignObject width="51.734375" height="42"><div style="color: rgb(255, 255, 255) !important; display: table-cell; white-space: nowrap; line-height: 1.5; max-width: 200px; text-align: center;" xmlns="http://www.w3.org/1999/xhtml"><span style="color:#fff !important" class="nodeLabel"><p>Agent<br />Runtime</p></span></div></foreignObject></g></g><g class="node default msPurple" id="my-svg-flowchart-MCP-3" data-look="classic" transform="translate(733.528377532959, 64.5)"><rect class="basic label-container" style="fill:#8764B8 !important;stroke:#6B4FA0 !important;stroke-width:2px !important" x="-79.328125" y="-36" width="158.65625" height="72"/><g class="label" style="color:#fff !important" transform="translate(-49.328125, -21)"><rect/><foreignObject width="98.65625" height="42"><div style="color: rgb(255, 255, 255) !important; display: table-cell; white-space: nowrap; line-height: 1.5; max-width: 200px; text-align: center;" xmlns="http://www.w3.org/1999/xhtml"><span style="color:#fff !important" class="nodeLabel"><p>MCP Server<br />Azure Functions</p></span></div></foreignObject></g></g><g class="node default msGray" id="my-svg-flowchart-InternalAPI-4" data-look="classic" transform="translate(982.122127532959, 64.5)"><rect class="basic label-container" style="fill:#605E5C !important;stroke:#484644 !important;stroke-width:2px !important" x="-53.515625" y="-36" width="107.03125" height="72"/><g class="label" style="color:#fff !important" transform="translate(-23.515625, -21)"><rect/><foreignObject width="47.03125" height="42"><div style="color: rgb(255, 255, 255) !important; display: table-cell; white-space: nowrap; line-height: 1.5; max-width: 200px; text-align: center;" xmlns="http://www.w3.org/1999/xhtml"><span style="color:#fff !important" class="nodeLabel"><p>Internal<br />API</p></span></div></foreignObject></g></g><g class="node default msGreen" id="my-svg-flowchart-APICtr-5" data-look="classic" transform="translate(454.965877532959, 166)"><rect class="basic label-container" style="fill:#107C10 !important;stroke:#0B6A0B !important;stroke-width:2px !important" x="-59.953125" y="-36" width="119.90625" height="72"/><g class="label" style="color:#fff !important" transform="translate(-29.953125, -21)"><rect/><foreignObject width="59.90625" height="42"><div style="color: rgb(255, 255, 255) !important; display: table-cell; white-space: nowrap; line-height: 1.5; max-width: 200px; text-align: center;" xmlns="http://www.w3.org/1999/xhtml"><span style="color:#fff !important" class="nodeLabel"><p>Azure API<br />Center</p></span></div></foreignObject></g></g></g></g></g><defs><filter id="my-svg-drop-shadow" height="130%" width="130%"><feDropShadow dx="4" dy="4" stdDeviation="0" flood-opacity="0.06" flood-color="#000000"/></filter></defs><defs><filter id="my-svg-drop-shadow-small" height="150%" width="150%"><feDropShadow dx="2" dy="2" stdDeviation="0" flood-opacity="0.06" flood-color="#000000"/></filter></defs><linearGradient id="my-svg-gradient" gradientUnits="objectBoundingBox" x1="0%" y1="0%" x2="100%" y2="0%"><stop offset="0%" stop-color="#005A9E" stop-opacity="1"/><stop offset="100%" stop-color="#D2D0CE" stop-opacity="1"/></linearGradient><text text-anchor="middle" x="521.8188495635986" y="-25" class="flowchartTitleText">MCP Server Request Flow</text><style>/* Microsoft Fluent-inspired Mermaid styles */

/* Base text styling */
.nodeLabel, .edgeLabel, .cluster-label, .flowchartTitleText {
  font-family: 'Segoe UI', -apple-system, BlinkMacSystemFont, sans-serif !important;
}

.flowchartTitleText {
  font-size: 18px !important;
  font-weight: 600 !important;
  fill: #323130 !important;
}

/* Node hover effects */
.node rect, .node polygon, .node circle, .node ellipse {
  transition: filter 0.2s ease;
}

/* Subgraph/cluster styling */
.cluster rect {
  rx: 8 !important;
  ry: 8 !important;
  stroke-width: 1.5px !important;
}

.cluster-label .nodeLabel {
  font-weight: 600 !important;
  font-size: 13px !important;
  fill: #605E5C !important;
}

/* Edge labels */
.edgeLabel {
  font-size: 12px !important;
  background-color: #FFFFFF !important;
  padding: 2px 6px !important;
}

/* Sequence diagram actor boxes */
.actor {
  stroke: #005A9E !important;
  stroke-width: 2px !important;
  fill: #0078D4 !important;
}

.actor text {
  fill: #FFFFFF !important;
  font-weight: 600 !important;
}

/* Note boxes in sequence diagrams */
.note {
  fill: #FFF4CE !important;
  stroke: #FFB900 !important;
}

.noteText {
  fill: #323130 !important;
}
</style></svg>